<?xml version="1.0" encoding="UTF-8"?>
<svg id="Layer_2" data-name="Layer 2" xmlns="http://www.w3.org/2000/svg" viewBox="0 0 684.56 162.14">
  <g id="Layer_1-2" data-name="Layer 1">
    <path d="M109.09,153.61h-4.37l-2.14-6.64h-11.69l-2.14,6.64h-4.37l9.97-29.44h4.8l9.97,29.44ZM96.72,129.09l-4.63,14.17h9.25l-4.63-14.17ZM124.86,153.61h-4.04v-29.44h4.29l7.95,19.39,7.95-19.39h4.29v29.44h-4.04v-21.03l-6.31,15.14h-3.79l-6.31-15.14v21.03ZM169.1,143.93h-14.64c0,2.05.52,3.69,1.56,4.94,1.04,1.25,2.38,1.87,4.04,1.87,1.29,0,2.35-.32,3.17-.95.83-.63,1.48-1.53,1.96-2.71l3.45,1.3c-1.54,3.81-4.4,5.72-8.58,5.72-1.85,0-3.49-.44-4.92-1.32-1.43-.88-2.54-2.12-3.34-3.7-.8-1.58-1.2-3.37-1.2-5.36v-1.09c0-2.02.4-3.81,1.22-5.38.81-1.57,1.94-2.8,3.39-3.68s3.08-1.32,4.9-1.32c1.71,0,3.24.39,4.61,1.18,1.36.79,2.43,1.93,3.22,3.45s1.18,3.34,1.18,5.47v1.6ZM156.34,137.06c-.97,1-1.56,2.33-1.79,4.02h10.77c-.11-1.68-.65-3.02-1.62-4.02s-2.17-1.49-3.6-1.49c-1.54,0-2.8.5-3.76,1.49ZM174.15,153.61v-20.86h3.79v2.15c.36-.73,1-1.35,1.89-1.87.9-.52,1.93-.78,3.11-.78,1.23,0,2.31.27,3.22.8.91.53,1.59,1.26,2.04,2.19.53-.9,1.3-1.62,2.29-2.17s2.14-.82,3.43-.82c1.99,0,3.53.62,4.63,1.87,1.09,1.25,1.64,2.92,1.64,5.03v14.47h-3.79v-13.84c0-1.23-.34-2.21-1.01-2.94-.67-.73-1.56-1.09-2.65-1.09s-1.98.38-2.65,1.14c-.67.76-1.01,1.74-1.01,2.94v13.79h-3.83v-13.84c0-1.26-.34-2.25-1.01-2.96-.67-.71-1.56-1.07-2.65-1.07s-1.98.38-2.65,1.14c-.67.76-1.01,1.74-1.01,2.94v13.79h-3.79ZM212.59,153.31c-1.04-.53-1.85-1.29-2.44-2.27v2.57h-3.83v-29.44h3.83v11.15c.53-.87,1.34-1.6,2.42-2.19,1.08-.59,2.28-.88,3.6-.88,1.68,0,3.18.43,4.48,1.28,1.3.86,2.32,2.07,3.05,3.64.73,1.57,1.09,3.39,1.09,5.47v1.09c0,2.08-.37,3.9-1.12,5.47s-1.77,2.78-3.07,3.64-2.8,1.28-4.48,1.28c-1.32,0-2.5-.27-3.53-.8ZM219.38,148.66c.97-1.19,1.45-2.82,1.45-4.9v-1.18c0-2.08-.48-3.71-1.45-4.9-.97-1.19-2.29-1.79-3.97-1.79s-3.01.6-3.97,1.79c-.97,1.19-1.45,2.83-1.45,4.9v1.18c0,2.08.48,3.71,1.45,4.9.97,1.19,2.29,1.79,3.97,1.79s3.01-.6,3.97-1.79ZM247.25,143.93h-14.64c0,2.05.52,3.69,1.56,4.94,1.04,1.25,2.38,1.87,4.04,1.87,1.29,0,2.35-.32,3.18-.95.83-.63,1.48-1.53,1.95-2.71l3.45,1.3c-1.54,3.81-4.4,5.72-8.58,5.72-1.85,0-3.49-.44-4.92-1.32-1.43-.88-2.54-2.12-3.34-3.7-.8-1.58-1.2-3.37-1.2-5.36v-1.09c0-2.02.41-3.81,1.22-5.38.81-1.57,1.94-2.8,3.39-3.68,1.44-.88,3.08-1.32,4.9-1.32,1.71,0,3.24.39,4.61,1.18,1.36.79,2.43,1.93,3.22,3.45.78,1.51,1.18,3.34,1.18,5.47v1.6ZM234.48,137.06c-.97,1-1.56,2.33-1.79,4.02h10.77c-.11-1.68-.65-3.02-1.62-4.02-.97-1-2.17-1.49-3.6-1.49-1.54,0-2.8.5-3.76,1.49ZM252.29,153.61v-20.86h3.83v2.52c.39-.9,1.05-1.63,1.98-2.19.92-.56,1.98-.84,3.15-.84.81,0,1.53.11,2.14.34v3.7c-.84-.34-1.72-.51-2.65-.51-1.37,0-2.49.49-3.35,1.47-.85.98-1.28,2.27-1.28,3.87v12.49h-3.83ZM279.59,152.79c-1.46-.88-2.6-2.12-3.43-3.7-.83-1.58-1.24-3.37-1.24-5.36v-1.09c0-1.99.41-3.78,1.24-5.36.83-1.58,1.97-2.82,3.43-3.7s3.11-1.32,4.96-1.32,3.5.44,4.96,1.32c1.46.88,2.59,2.12,3.41,3.7.81,1.58,1.22,3.37,1.22,5.36v1.09c0,1.99-.41,3.78-1.22,5.36-.81,1.58-1.95,2.82-3.41,3.7-1.46.88-3.11,1.32-4.96,1.32s-3.51-.44-4.96-1.32ZM288.65,148.62c1.02-1.22,1.53-2.84,1.53-4.86v-1.18c0-2.02-.51-3.64-1.53-4.86-1.03-1.22-2.39-1.83-4.1-1.83s-3.12.61-4.14,1.83c-1.02,1.22-1.53,2.84-1.53,4.86v1.18c0,2.02.51,3.64,1.53,4.86,1.02,1.22,2.4,1.83,4.14,1.83s3.08-.61,4.1-1.83ZM304.65,127.97c-.5.52-.76,1.26-.76,2.21v2.57h5.59v3.32h-5.59v17.54h-3.83v-17.54h-3.66v-3.32h3.66v-2.65c0-2.05.57-3.63,1.72-4.75s2.71-1.68,4.67-1.68c1.01,0,2.02.17,3.03.5v3.58c-.95-.36-1.85-.55-2.69-.55-.93,0-1.64.26-2.15.78ZM332.37,136.07h-5.64v11.61c0,.92.22,1.64.65,2.14s1.1.76,2,.76c.95,0,1.95-.25,2.99-.76v3.58c-1.09.48-2.36.71-3.79.71-1.88,0-3.29-.55-4.25-1.64-.95-1.09-1.43-2.66-1.43-4.71v-11.69h-3.96v-3.32h3.96v-4l3.83-1.77v5.76h5.64v3.32ZM336.78,153.61v-29.44h3.83v10.89c.45-.78,1.18-1.45,2.21-2s2.17-.82,3.43-.82c2.21,0,3.97.7,5.28,2.1,1.3,1.4,1.95,3.25,1.95,5.55v13.71h-3.83v-12.87c0-1.49-.42-2.68-1.26-3.6-.84-.91-1.92-1.37-3.24-1.37s-2.41.46-3.26,1.39c-.86.92-1.28,2.12-1.28,3.57v12.87h-3.83ZM377.03,143.93h-14.64c0,2.05.52,3.69,1.56,4.94,1.04,1.25,2.38,1.87,4.04,1.87,1.29,0,2.35-.32,3.17-.95.83-.63,1.48-1.53,1.96-2.71l3.45,1.3c-1.54,3.81-4.4,5.72-8.58,5.72-1.85,0-3.49-.44-4.92-1.32-1.43-.88-2.54-2.12-3.34-3.7-.8-1.58-1.2-3.37-1.2-5.36v-1.09c0-2.02.4-3.81,1.22-5.38.81-1.57,1.94-2.8,3.39-3.68s3.08-1.32,4.9-1.32c1.71,0,3.24.39,4.61,1.18,1.36.79,2.43,1.93,3.22,3.45s1.18,3.34,1.18,5.47v1.6ZM364.27,137.06c-.97,1-1.56,2.33-1.79,4.02h10.77c-.11-1.68-.65-3.02-1.62-4.02-.97-1-2.17-1.49-3.6-1.49-1.54,0-2.8.5-3.76,1.49ZM390.16,153.61v-29.44h10.51c2.5,0,4.49.69,5.97,2.08,1.49,1.39,2.23,3.29,2.23,5.7,0,1.71-.43,3.13-1.3,4.25s-1.96,1.92-3.28,2.4c.95.25,1.68.74,2.19,1.47s.87,1.81,1.09,3.24l1.51,10.3h-4.21l-1.39-10.01c-.17-1.21-.49-2.04-.97-2.5-.48-.46-1.22-.69-2.23-.69h-5.93v13.21h-4.21ZM400.12,136.74c1.43,0,2.54-.39,3.34-1.16.8-.77,1.2-1.87,1.2-3.3s-.4-2.52-1.2-3.28c-.8-.76-1.91-1.14-3.34-1.14h-5.76v8.87h5.76ZM417.79,152.79c-1.46-.88-2.6-2.12-3.43-3.7-.83-1.58-1.24-3.37-1.24-5.36v-1.09c0-1.99.41-3.78,1.24-5.36.83-1.58,1.97-2.82,3.43-3.7,1.46-.88,3.11-1.32,4.96-1.32s3.51.44,4.96,1.32c1.46.88,2.59,2.12,3.41,3.7.81,1.58,1.22,3.37,1.22,5.36v1.09c0,1.99-.41,3.78-1.22,5.36-.81,1.58-1.95,2.82-3.41,3.7-1.46.88-3.11,1.32-4.96,1.32s-3.5-.44-4.96-1.32ZM426.85,148.62c1.02-1.22,1.53-2.84,1.53-4.86v-1.18c0-2.02-.51-3.64-1.53-4.86-1.02-1.22-2.39-1.83-4.1-1.83s-3.12.61-4.14,1.83c-1.03,1.22-1.53,2.84-1.53,4.86v1.18c0,2.02.51,3.64,1.53,4.86,1.02,1.22,2.4,1.83,4.14,1.83s3.08-.61,4.1-1.83ZM440.9,152.79c-1.44-.88-2.57-2.12-3.39-3.7-.81-1.58-1.22-3.37-1.22-5.36v-1.09c0-1.99.41-3.78,1.22-5.36.81-1.58,1.94-2.82,3.39-3.7,1.44-.88,3.09-1.32,4.94-1.32,2.13,0,3.91.52,5.34,1.56,1.43,1.04,2.45,2.51,3.07,4.42l-3.36,1.51c-.42-1.21-1.06-2.14-1.91-2.82-.85-.67-1.9-1.01-3.13-1.01-1.68,0-3.04.61-4.06,1.83-1.02,1.22-1.53,2.83-1.53,4.82v1.26c0,1.99.51,3.6,1.53,4.82,1.02,1.22,2.38,1.83,4.06,1.83,1.23,0,2.28-.34,3.13-1.03.86-.69,1.51-1.63,1.96-2.84l3.41,1.51c-.73,1.91-1.8,3.39-3.22,4.44-1.42,1.05-3.18,1.58-5.28,1.58-1.85,0-3.5-.44-4.94-1.32ZM458.79,153.61v-29.44h3.83v10.89c.45-.78,1.18-1.45,2.21-2,1.02-.55,2.17-.82,3.43-.82,2.22,0,3.97.7,5.28,2.1,1.3,1.4,1.96,3.25,1.96,5.55v13.71h-3.83v-12.87c0-1.49-.42-2.68-1.26-3.6-.84-.91-1.92-1.37-3.24-1.37s-2.4.46-3.26,1.39c-.85.92-1.28,2.12-1.28,3.57v12.87h-3.83ZM499.04,143.93h-14.64c0,2.05.52,3.69,1.56,4.94,1.04,1.25,2.38,1.87,4.04,1.87,1.29,0,2.35-.32,3.17-.95.83-.63,1.48-1.53,1.96-2.71l3.45,1.3c-1.54,3.81-4.4,5.72-8.58,5.72-1.85,0-3.49-.44-4.92-1.32-1.43-.88-2.54-2.12-3.34-3.7-.8-1.58-1.2-3.37-1.2-5.36v-1.09c0-2.02.4-3.81,1.22-5.38.81-1.57,1.94-2.8,3.39-3.68s3.08-1.32,4.9-1.32c1.71,0,3.24.39,4.61,1.18,1.36.79,2.43,1.93,3.22,3.45s1.18,3.34,1.18,5.47v1.6ZM486.28,137.06c-.97,1-1.56,2.33-1.79,4.02h10.77c-.11-1.68-.65-3.02-1.62-4.02s-2.17-1.49-3.6-1.49c-1.54,0-2.8.5-3.76,1.49ZM516.83,152.41c-1.91-1.19-3.39-2.87-4.44-5.03-1.05-2.16-1.58-4.65-1.58-7.49v-2.02c0-2.83.53-5.33,1.58-7.49,1.05-2.16,2.53-3.83,4.44-5.03,1.91-1.19,4.09-1.79,6.56-1.79s4.77.62,6.56,1.85c1.79,1.23,3.15,2.99,4.08,5.26l-3.36,1.85c-1.54-3.39-3.95-5.09-7.23-5.09-1.68,0-3.15.43-4.42,1.3-1.26.87-2.24,2.08-2.92,3.64s-1.03,3.34-1.03,5.36v2.27c0,2.02.34,3.81,1.03,5.36s1.67,2.77,2.95,3.64c1.28.87,2.77,1.3,4.48,1.3,2.66,0,4.84-1.08,6.52-3.24v-5.22h-7.19v-3.57h11.31v10.39c-1.32,1.74-2.84,3.09-4.56,4.06-1.73.97-3.78,1.45-6.16,1.45s-4.7-.6-6.6-1.79ZM539.54,153.61v-20.86h3.83v2.52c.39-.9,1.05-1.63,1.98-2.19.92-.56,1.98-.84,3.15-.84.81,0,1.53.11,2.14.34v3.7c-.84-.34-1.72-.51-2.65-.51-1.37,0-2.49.49-3.35,1.47-.85.98-1.28,2.27-1.28,3.87v12.49h-3.83ZM558.01,152.79c-1.46-.88-2.6-2.12-3.43-3.7-.83-1.58-1.24-3.37-1.24-5.36v-1.09c0-1.99.41-3.78,1.24-5.36.83-1.58,1.97-2.82,3.43-3.7s3.11-1.32,4.96-1.32,3.5.44,4.96,1.32c1.46.88,2.59,2.12,3.41,3.7.81,1.58,1.22,3.37,1.22,5.36v1.09c0,1.99-.41,3.78-1.22,5.36-.81,1.58-1.95,2.82-3.41,3.7-1.46.88-3.11,1.32-4.96,1.32s-3.51-.44-4.96-1.32ZM567.07,148.62c1.02-1.22,1.53-2.84,1.53-4.86v-1.18c0-2.02-.51-3.64-1.53-4.86-1.03-1.22-2.39-1.83-4.1-1.83s-3.12.61-4.14,1.83c-1.02,1.22-1.53,2.84-1.53,4.86v1.18c0,2.02.51,3.64,1.53,4.86,1.02,1.22,2.4,1.83,4.14,1.83s3.08-.61,4.1-1.83ZM579.46,152.07c-1.23-1.36-1.85-3.22-1.85-5.57v-13.75h3.83v13.08c0,1.49.4,2.65,1.2,3.49.8.84,1.86,1.26,3.18,1.26s2.38-.43,3.17-1.3c.8-.87,1.2-2.02,1.2-3.45v-13.08h3.83v20.86h-3.83v-2.31c-.45.81-1.16,1.49-2.14,2.02-.98.53-2.1.8-3.36.8-2.24,0-3.98-.68-5.21-2.04ZM600.15,162.14v-29.4h3.83v2.69c.56-.95,1.37-1.73,2.42-2.31s2.25-.88,3.6-.88c1.65,0,3.13.43,4.44,1.28,1.3.86,2.33,2.07,3.07,3.64s1.12,3.39,1.12,5.47v1.09c0,2.08-.37,3.9-1.12,5.47s-1.77,2.78-3.07,3.64c-1.3.86-2.78,1.28-4.44,1.28-1.37,0-2.58-.27-3.62-.8s-1.84-1.23-2.4-2.1v10.94h-3.83ZM613.14,148.64c1.01-1.21,1.51-2.83,1.51-4.88v-1.18c0-2.05-.51-3.67-1.51-4.88-1.01-1.21-2.31-1.81-3.91-1.81s-2.94.6-3.93,1.81c-1,1.21-1.49,2.83-1.49,4.88v1.18c0,2.05.5,3.67,1.49,4.88,1,1.21,2.31,1.81,3.93,1.81s2.9-.6,3.91-1.81ZM163.06,62.19v-18.2c0-2.72-.48-5.16-1.43-7.34-.95-2.17-2.7-3.97-5.25-5.4s-5.93-2.53-10.14-3.31c-4.21-.78-9.51-1.17-15.89-1.17-6.93,0-12.55.49-16.86,1.48-4.31.99-7.66,2.39-10.04,4.23-2.38,1.83-3.97,3.99-4.79,6.47-.82,2.48-1.22,5.18-1.22,8.1v22.69c0,2.79.41,5.4,1.22,7.85.81,2.45,2.41,4.59,4.79,6.42,2.38,1.83,5.72,3.26,10.04,4.28,4.31,1.02,9.93,1.53,16.86,1.53,6.38,0,11.68-.37,15.89-1.12,4.21-.75,7.59-1.8,10.14-3.16,2.55-1.36,4.3-3.09,5.25-5.2.95-2.1,1.43-4.48,1.43-7.13v-4.58h-17.83v4.48c0,1.09-.19,2-.56,2.75-.37.75-1.09,1.38-2.14,1.88-1.05.51-2.56.92-4.53,1.22-1.97.31-4.52.46-7.64.46-3.4,0-6.11-.25-8.15-.76-2.04-.51-3.53-1.19-4.48-2.04-.95-.85-1.55-1.82-1.78-2.9-.24-1.09-.36-2.17-.36-3.26v-8.26h47.48ZM115.58,46.23c0-1.15.12-2.26.36-3.31.24-1.05.83-2.02,1.78-2.9.95-.88,2.43-1.58,4.43-2.09,2-.51,4.74-.76,8.2-.76,3.12,0,5.65.17,7.59.51,1.94.34,3.45.8,4.53,1.38,1.09.58,1.82,1.27,2.19,2.09.37.81.56,1.77.56,2.85v7.64h-29.65v-5.4ZM527.59,62.19v-18.2c0-2.72-.48-5.16-1.43-7.34-.95-2.17-2.7-3.97-5.25-5.4s-5.93-2.53-10.14-3.31c-4.21-.78-9.51-1.17-15.89-1.17-6.93,0-12.55.49-16.86,1.48-4.31.99-7.66,2.39-10.04,4.23-2.38,1.83-3.97,3.99-4.79,6.47-.82,2.48-1.22,5.18-1.22,8.1v22.69c0,2.79.41,5.4,1.22,7.85.81,2.45,2.41,4.59,4.79,6.42,2.38,1.83,5.72,3.26,10.04,4.28,4.31,1.02,9.93,1.53,16.86,1.53,6.38,0,11.68-.37,15.89-1.12,4.21-.75,7.59-1.8,10.14-3.16,2.55-1.36,4.3-3.09,5.25-5.2.95-2.1,1.43-4.48,1.43-7.13v-4.58h-17.83v4.48c0,1.09-.19,2-.56,2.75-.37.75-1.09,1.38-2.14,1.88-1.05.51-2.56.92-4.53,1.22-1.97.31-4.52.46-7.64.46-3.4,0-6.11-.25-8.15-.76-2.04-.51-3.53-1.19-4.48-2.04-.95-.85-1.55-1.82-1.78-2.9-.24-1.09-.36-2.17-.36-3.26v-8.26h47.48ZM480.11,46.23c0-1.15.12-2.26.36-3.31.24-1.05.83-2.02,1.78-2.9.95-.88,2.43-1.58,4.43-2.09,2-.51,4.74-.76,8.2-.76,3.12,0,5.65.17,7.59.51,1.94.34,3.45.8,4.53,1.38,1.09.58,1.82,1.27,2.19,2.09.37.81.56,1.77.56,2.85v7.64h-29.65v-5.4ZM320.34,62.19v-18.2c0-2.72-.48-5.16-1.43-7.34-.95-2.17-2.7-3.97-5.25-5.4s-5.93-2.53-10.14-3.31c-4.21-.78-9.51-1.17-15.89-1.17-6.93,0-12.55.49-16.86,1.48-4.31.99-7.66,2.39-10.04,4.23-2.38,1.83-3.97,3.99-4.79,6.47-.82,2.48-1.22,5.18-1.22,8.1v22.69c0,2.79.41,5.4,1.22,7.85.81,2.45,2.41,4.59,4.79,6.42,2.38,1.83,5.72,3.26,10.04,4.28,4.31,1.02,9.93,1.53,16.86,1.53,6.38,0,11.68-.37,15.89-1.12,4.21-.75,7.59-1.8,10.14-3.16,2.55-1.36,4.3-3.09,5.25-5.2.95-2.1,1.43-4.48,1.43-7.13v-4.58h-17.83v4.48c0,1.09-.19,2-.56,2.75-.37.75-1.09,1.38-2.14,1.88-1.05.51-2.56.92-4.53,1.22-1.97.31-4.52.46-7.64.46-3.4,0-6.11-.25-8.15-.76-2.04-.51-3.53-1.19-4.48-2.04-.95-.85-1.55-1.82-1.78-2.9-.24-1.09-.36-2.17-.36-3.26v-8.26h47.48ZM272.86,46.23c0-1.15.12-2.26.36-3.31.24-1.05.83-2.02,1.78-2.9.95-.88,2.43-1.58,4.43-2.09,2-.51,4.74-.76,8.2-.76,3.12,0,5.65.17,7.59.51,1.94.34,3.45.8,4.53,1.38,1.09.58,1.82,1.27,2.19,2.09.37.81.56,1.77.56,2.85v7.64h-29.65v-5.4ZM176.17,88.38V28.1h15.38l.92,6.83c1.09-1.29,2.38-2.45,3.87-3.46,1.49-1.02,3.21-1.89,5.15-2.6,1.94-.71,4.09-1.24,6.47-1.58,2.38-.34,4.99-.51,7.85-.51,4.75,0,8.78.44,12.07,1.32,3.29.88,5.99,2.16,8.1,3.82,2.1,1.66,3.63,3.74,4.59,6.21.95,2.48,1.43,5.32,1.43,8.51v41.74h-18.14v-40.72c0-1.77-.25-3.26-.76-4.48-.51-1.22-1.34-2.26-2.5-3.11-1.16-.85-2.65-1.48-4.48-1.89-1.83-.41-4.01-.61-6.52-.61-2.72,0-4.99.22-6.83.66-1.83.44-3.41,1.1-4.74,1.99-1.32.88-2.29,1.95-2.9,3.21-.61,1.26-.92,2.7-.92,4.33v40.62h-18.03ZM333.54,88.38V28.1h15.38l.92,6.83c1.09-1.29,2.38-2.45,3.87-3.46,1.49-1.02,3.21-1.89,5.15-2.6,1.94-.71,4.09-1.24,6.47-1.58,2.38-.34,4.99-.51,7.85-.51,4.75,0,8.78.44,12.07,1.32,3.29.88,5.99,2.16,8.1,3.82,2.1,1.66,3.63,3.74,4.58,6.21.95,2.48,1.43,5.32,1.43,8.51v41.74h-18.14v-40.72c0-1.77-.25-3.26-.76-4.48-.51-1.22-1.34-2.26-2.5-3.11-1.16-.85-2.65-1.48-4.48-1.89-1.83-.41-4.01-.61-6.52-.61-2.72,0-4.99.22-6.83.66-1.83.44-3.41,1.1-4.74,1.99-1.32.88-2.29,1.95-2.9,3.21-.61,1.26-.92,2.7-.92,4.33v40.62h-18.03ZM434.29,38.64v31.71c0,1.09.07,2.12.2,3.11.14.98.51,1.83,1.12,2.55s1.46,1.27,2.55,1.68c1.09.41,2.55.61,4.38.61h10.9v10.09h-15.38c-4.62,0-8.34-.44-11.16-1.32-2.82-.88-5.04-2.14-6.67-3.77-1.63-1.63-2.72-3.62-3.26-5.96-.54-2.34-.82-4.94-.82-7.79v-30.89h-8.05v-10.54h8.05v-14.83h18.14v14.83h19.05v10.54h-19.05ZM556.02,88.28c-4.31-1.02-7.66-2.45-10.04-4.28-2.38-1.83-3.97-3.97-4.79-6.42-.81-2.45-1.22-5.06-1.22-7.85v-22.69c0-2.92.41-5.62,1.22-8.1.82-2.48,2.41-4.64,4.79-6.47,2.38-1.83,5.72-3.24,10.04-4.23,4.31-.98,9.93-1.48,16.86-1.48,6.38,0,11.67.39,15.84,1.17,4.18.78,7.54,1.89,10.09,3.31,2.55,1.43,4.31,3.23,5.3,5.4.98,2.17,1.48,4.62,1.48,7.34v6.42h-17.83v-6.42c0-1.09-.19-2.04-.56-2.85-.37-.81-1.11-1.51-2.19-2.09-1.09-.58-2.6-1.04-4.53-1.38-1.94-.34-4.47-.51-7.59-.51-3.46,0-6.2.25-8.2.76-2,.51-3.48,1.21-4.43,2.09-.95.88-1.55,1.85-1.78,2.9-.24,1.05-.36,2.16-.36,3.31v24.21c0,1.09.12,2.17.36,3.26.24,1.09.85,2.06,1.83,2.9.98.85,2.48,1.53,4.48,2.04,2,.51,4.7.76,8.1.76,3.12,0,5.66-.17,7.59-.51,1.94-.34,3.45-.78,4.53-1.32,1.09-.54,1.82-1.22,2.19-2.04.37-.82.56-1.77.56-2.85v-6.62h17.83v6.72c0,2.65-.49,5.03-1.48,7.13-.99,2.11-2.75,3.89-5.3,5.35-2.55,1.46-5.91,2.58-10.09,3.36s-9.46,1.17-15.84,1.17c-6.93,0-12.55-.51-16.86-1.53ZM670.45,28.1c3.29.88,5.99,2.16,8.1,3.82,2.1,1.66,3.63,3.74,4.58,6.21.95,2.48,1.43,5.32,1.43,8.51v41.74h-18.14v-40.72c0-1.77-.25-3.26-.76-4.48-.51-1.22-1.34-2.26-2.5-3.11-1.16-.85-2.65-1.48-4.48-1.89-1.83-.41-4.04-.61-6.62-.61s-4.91.22-6.78.66c-1.87.44-3.45,1.1-4.74,1.99-1.29.88-2.24,1.95-2.85,3.21-.61,1.26-.92,2.7-.92,4.33v40.62h-18.03V.16h18.03v32.93c1.09-.95,2.36-1.82,3.82-2.6,1.46-.78,3.07-1.46,4.84-2.04,1.77-.58,3.74-1,5.91-1.27,2.17-.27,4.52-.41,7.03-.41,4.75,0,8.78.44,12.07,1.32ZM62.84,55.18h-20.77v-12.5h42.47v20.2c0,3.12-.59,5.99-1.78,8.61-1.19,2.61-8.75,18.32-40.48,18.32S2.97,74.1,1.78,71.49c-1.19-2.62-1.78-5.49-1.78-8.61V26.93c0-3.12.59-5.99,1.78-8.61C2.97,15.7,10.54,0,42.27,0s39.3,15.7,40.48,18.32c1.19,2.62,1.78,5.49,1.78,8.61v4.15h-21.69v-8.35c0-1.43-.27-2.8-.81-4.13-.54-1.32-1.54-2.5-3.01-3.52-1.46-1.02-3.53-1.87-6.22-2.55-2.68-.68-6.2-1.02-10.55-1.02s-7.86.34-10.55,1.02c-2.68.68-4.76,1.53-6.22,2.55-1.46,1.02-2.46,2.19-3.01,3.52-.54,1.32-.81,2.7-.81,4.13v44.36c0,1.43.27,2.8.81,4.13.54,1.32,1.54,2.5,3.01,3.52,1.46,1.02,3.53,1.87,6.22,2.55,2.68.68,6.2,1.02,10.55,1.02s7.86-.34,10.55-1.02c2.68-.68,4.76-1.53,6.22-2.55,1.46-1.02,2.46-2.19,3.01-3.52.54-1.32.81-2.7.81-4.13v-11.91Z"/>
  </g>
</svg>